# xmcd
#
# Track frame offsets:
#	150
#	24417
#	49406
#	79374
#	104916
#	128117
#	152712
#	185028
#	212429
#	232799
#	258699
#
# Disc length: 3743 seconds
#
# Revision: 0
# Processed by: cddbd v1.4PL0 Copyright (c) Steve Scherf et al.
# Submitted via: EasyCDDAExtractor 4.6.9.1
#
DISCID=9a0e9d0b
DTITLE=Tracy Chapman - New Beginning
DYEAR=1995
DGENRE=
TTITLE0=Heaven´s Here On Earth
TTITLE1=New Beginning
TTITLE2=Smoke And Ashes
TTITLE3=Cold Feet
TTITLE4=At This Point In My Life
TTITLE5=The Promise
TTITLE6=The Rape Of The World
TTITLE7=Tell It Like It Is
TTITLE8=Give Me One Reason
TTITLE9=Remember The Tinman
TTITLE10=I´m Ready
EXTD=
EXTT0=
EXTT1=
EXTT2=
EXTT3=
EXTT4=
EXTT5=
EXTT6=
EXTT7=
EXTT8=
EXTT9=
EXTT10=
PLAYORDER=
